<svg width="120" height="15" viewBox="0 0 120 15" fill="none" xmlns="http://www.w3.org/2000/svg">
<g clip-path="url(#clip0_90_58)">
<path d="M12.3907 0C9.08649 0 7.02133 1.65211 6.19523 4.95633C7.4343 3.30398 8.87992 2.68445 10.5321 3.09773C11.4745 3.33328 12.1484 4.01719 12.8941 4.77422C14.1089 6.00703 15.5149 7.43437 18.5859 7.43437C21.8902 7.43437 23.9552 5.78227 24.7812 2.47805C23.5421 4.13039 22.0966 4.74992 20.4445 4.33664C19.5019 4.10109 18.8283 3.41719 18.0825 2.66016C16.8675 1.42734 15.4617 0 12.3907 0ZM6.19523 7.43437C2.89117 7.43437 0.826094 9.08648 0 12.3907C1.23906 10.7384 2.68461 10.1188 4.33664 10.5321C5.2793 10.7677 5.95313 11.4516 6.69867 12.2084C7.91367 13.4416 9.31969 14.8685 12.3907 14.8685C15.6948 14.8685 17.7598 13.2165 18.5859 9.91242C17.3469 11.5648 15.9013 12.1843 14.2493 11.771C13.3066 11.5355 12.6328 10.8516 11.887 10.0945C10.6723 8.86172 9.26625 7.43437 6.19523 7.43437Z" fill="url(#paint0_linear_90_58)"/>
<path d="M37.17 6.26485H35.0076V10.4503C35.0076 11.5664 35.7401 11.5491 37.17 11.4792V13.1707C34.2752 13.5195 33.1242 12.7174 33.1242 10.4503V6.26508H31.5199V4.45149H33.1242V2.10914L35.0076 1.55133V4.45149H37.17V6.26485ZM45.4129 4.45149H47.2964V13.1707H45.4129V11.9152C44.7504 12.8395 43.7215 13.3976 42.3614 13.3976C39.9895 13.3976 38.0189 11.392 38.0189 8.8111C38.0189 6.21282 39.9895 4.22485 42.3611 4.22485C43.7215 4.22485 44.7504 4.78266 45.4129 5.68969V4.45149ZM42.6576 11.6013C44.227 11.6013 45.4129 10.433 45.4129 8.8111C45.4129 7.18922 44.227 6.02086 42.6576 6.02086C41.0883 6.02086 39.9023 7.18922 39.9023 8.8111C39.9023 10.433 41.0883 11.6013 42.6576 11.6013ZM50.4354 3.14344C49.7726 3.14344 49.2321 2.58563 49.2321 1.94039C49.2327 1.62145 49.3597 1.31575 49.5852 1.09023C49.8107 0.864705 50.1164 0.737732 50.4354 0.737112C50.7543 0.737732 51.06 0.864705 51.2855 1.09023C51.5111 1.31575 51.638 1.62145 51.6386 1.94039C51.6386 2.58563 51.0979 3.14344 50.4354 3.14344ZM49.4936 13.1707V4.45149H51.3768V13.1707H49.4936ZM53.5568 13.1707V0.440628H55.4402V13.1707H53.5568ZM67.6647 4.45149H69.6527L66.9147 13.1707H65.0662L63.2526 7.29399L61.4217 13.1707H59.5732L56.8352 4.45149H58.8232L60.5149 10.4679L62.3458 4.45149H64.1421L65.9557 10.4679L67.6647 4.45149ZM71.9894 3.14367C71.3269 3.14367 70.7861 2.58563 70.7861 1.94039C70.7868 1.62145 70.9137 1.31575 71.1393 1.09023C71.3648 0.864705 71.6705 0.737732 71.9894 0.737112C72.3084 0.737732 72.6141 0.864705 72.8396 1.09023C73.0651 1.31575 73.1921 1.62145 73.1927 1.94039C73.1927 2.58563 72.652 3.14344 71.9894 3.14344M71.0477 13.1705V4.45149H72.9311V13.1707L71.0477 13.1705ZM79.6973 4.22438C81.6504 4.22438 83.0456 5.54977 83.0456 7.81688V13.1705H81.1622V8.00883C81.1622 6.68368 80.3948 5.98618 79.2091 5.98618C77.9709 5.98618 76.9943 6.71836 76.9943 8.49727V13.1707H75.1108V4.45149H76.9943V5.56758C77.5699 4.66055 78.5114 4.22438 79.6973 4.22438ZM91.9741 0.963753H93.8576V13.1707H91.9741V11.9152C91.3115 12.8395 90.2826 13.3976 88.9226 13.3976C86.5507 13.3976 84.5801 11.392 84.5801 8.8111C84.5801 6.21282 86.5507 4.22485 88.9223 4.22485C90.2826 4.22485 91.3115 4.78266 91.9741 5.68969V0.963753ZM89.2188 11.6013C90.7882 11.6013 91.9741 10.433 91.9741 8.8111C91.9741 7.18922 90.7882 6.02086 89.2188 6.02086C87.6494 6.02086 86.4635 7.18922 86.4635 8.8111C86.4635 10.433 87.6494 11.6013 89.2188 11.6013ZM100.17 13.3976C97.537 13.3976 95.5664 11.392 95.5664 8.8111C95.5664 6.21282 97.537 4.22485 100.17 4.22485C101.879 4.22485 103.361 5.11407 104.059 6.47438L102.437 7.4161C102.054 6.59649 101.199 6.07313 100.153 6.07313C98.6182 6.07313 97.4498 7.24172 97.4498 8.8111C97.4498 10.3805 98.6182 11.5491 100.153 11.5491C101.199 11.5491 102.054 11.0084 102.472 10.2061L104.094 11.1305C103.361 12.5081 101.879 13.3976 100.17 13.3976ZM107.198 6.85805C107.198 8.44477 111.889 7.48571 111.889 10.7119C111.889 12.4556 110.372 13.3976 108.488 13.3976C106.745 13.3976 105.489 12.6127 104.931 11.3571L106.553 10.4154C106.832 11.2003 107.529 11.6709 108.488 11.6709C109.326 11.6709 109.971 11.392 109.971 10.6945C109.971 9.1425 105.28 10.0144 105.28 6.89297C105.28 5.25352 106.692 4.22485 108.471 4.22485C109.901 4.22485 111.087 4.88743 111.697 6.03844L110.111 6.92766C109.796 6.24774 109.186 5.93391 108.471 5.93391C107.791 5.93391 107.198 6.23016 107.198 6.85805ZM115.237 6.85805C115.237 8.44477 119.928 7.48571 119.928 10.7119C119.928 12.4556 118.411 13.3976 116.528 13.3976C114.784 13.3976 113.528 12.6127 112.97 11.3571L114.592 10.4154C114.871 11.2003 115.569 11.6709 116.528 11.6709C117.365 11.6709 118.01 11.392 118.01 10.6945C118.01 9.1425 113.319 10.0144 113.319 6.89297C113.319 5.25352 114.731 4.22485 116.51 4.22485C117.94 4.22485 119.126 4.88743 119.737 6.03844L118.15 6.92766C117.836 6.24774 117.225 5.93391 116.51 5.93391C115.83 5.93391 115.237 6.23016 115.237 6.85805Z" fill="white"/>
</g>
<defs>
<linearGradient id="paint0_linear_90_58" x1="-68.8421" y1="475.792" x2="2071.4" y2="1709.84" gradientUnits="userSpaceOnUse">
<stop stop-color="#2298BD"/>
<stop offset="1" stop-color="#0ED7B5"/>
</linearGradient>
<clipPath id="clip0_90_58">
<rect width="120" height="15" fill="white"/>
</clipPath>
</defs>
</svg>
