<svg width="40" height="57" viewBox="0 0 40 57" fill="none" xmlns="http://www.w3.org/2000/svg">
<g clip-path="url(#clip0_90_42)">
<path d="M39.9305 11.0572L36.299 51.7384L19.9756 56.2638L3.69718 51.7447L0.069519 11.0572H39.9305Z" fill="#E44D26"/>
<path d="M20 52.8047L33.1902 49.148L36.2933 14.3839H20V52.8047Z" fill="#F16529"/>
<path d="M12.9407 24.3644H20V19.3742H7.48706L7.60644 20.713L8.833 34.4645H20V29.4744H13.3967L12.9407 24.3644ZM14.0653 36.9597H9.05597L9.75503 44.795L19.9771 47.6325L20 47.6263V42.4344L19.9782 42.4402L14.4207 40.9395L14.0653 36.9597Z" fill="#EBEBEB"/>
<path d="M3.77814 0H6.31407V2.50547H8.63392V0H11.17V7.58719H8.63407V5.04656H6.31423V7.58719H3.77829L3.77814 0ZM14.5047 2.51609H12.2725V0H19.2747V2.51609H17.0411V7.58719H14.5052V2.51609H14.5047ZM20.3859 0H23.0302L24.6567 2.66594L26.2817 0H28.927V7.58719H26.4014V3.82656L24.6567 6.52422H24.613L22.8672 3.82656V7.58719H20.3859V0ZM30.1891 0H32.7258V5.07937H36.292V7.58719H30.1889L30.1891 0Z" fill="white"/>
<path d="M19.9828 34.4645H26.1277L25.5483 40.9364L19.9827 42.4386V47.6302L30.2128 44.795L30.2878 43.9519L31.4606 30.8144L31.5824 29.4744H19.9828V34.4645ZM19.9828 24.3522V24.3644H32.0364L32.1364 23.2428L32.3639 20.713L32.4831 19.3742H19.9828V24.3522Z" fill="white"/>
</g>
<defs>
<clipPath id="clip0_90_42">
<rect width="40" height="56.4062" fill="white"/>
</clipPath>
</defs>
</svg>
