<svg width="40" height="57" viewBox="0 0 40 57" fill="none" xmlns="http://www.w3.org/2000/svg">
<g clip-path="url(#clip0_90_48)">
<path d="M19.9756 56.2638L3.69718 51.7447L0.069519 11.0572H39.9305L36.299 51.7384L19.9756 56.2638Z" fill="#264DE4"/>
<path d="M33.1902 49.148L36.2933 14.3839H20V52.8047L33.1902 49.148Z" fill="#2965F1"/>
<path d="M8.38581 29.4744L8.833 34.4645H20V29.4744H8.38581ZM7.48706 19.3742L7.94065 24.3644H20V19.3742H7.48706ZM20 42.4344L19.9782 42.4402L14.4207 40.9395L14.0653 36.9597H9.05597L9.75503 44.795L19.9771 47.6325L20 47.6263V42.4344Z" fill="#EBEBEB"/>
<path d="M9.45062 0H15.4944V2.5275H11.9781V5.055H15.4947V7.58234H9.45062V0ZM16.7033 0H22.7472V2.19781H19.2308V2.63734H22.7472V7.69234H16.7034V5.38437H20.2198V4.94484H16.7031L16.7033 0ZM23.9561 0H30V2.19781H26.4836V2.63734H30V7.69234H23.9561V5.38437H27.4725V4.94484H23.9562L23.9561 0Z" fill="white"/>
<path d="M31.5824 29.4744L32.4831 19.3742H19.9828V24.3644H27.0144L26.5603 29.4744H19.9828V34.4645H26.1277L25.5483 40.9364L19.9827 42.4386V47.6302L30.2128 44.795L30.2878 43.9519L31.4606 30.8144L31.5824 29.4744Z" fill="white"/>
</g>
<defs>
<clipPath id="clip0_90_48">
<rect width="40" height="56.4062" fill="white"/>
</clipPath>
</defs>
</svg>
