<svg width="40" height="40" viewBox="0 0 40 40" fill="none" xmlns="http://www.w3.org/2000/svg">
<path d="M20 23.0925C21.7259 23.0925 23.125 21.6934 23.125 19.9675C23.125 18.2416 21.7259 16.8425 20 16.8425C18.2741 16.8425 16.875 18.2416 16.875 19.9675C16.875 21.6934 18.2741 23.0925 20 23.0925Z" fill="#00D8FF"/>
<path d="M20 27.1325C16.2439 27.223 12.4973 26.7167 8.9 25.6325C7.23828 25.1057 5.68842 24.2759 4.32875 23.185C3.80973 22.8125 3.37753 22.332 3.06185 21.7766C2.74617 21.2212 2.55449 20.604 2.5 19.9675C2.5 17.9013 4.77 15.8763 8.5725 14.5513C12.2661 13.3782 16.125 12.8092 20 12.8663C23.8233 12.8134 27.6306 13.3721 31.2775 14.5213C32.8776 15.032 34.3748 15.8217 35.7 16.8538C36.2094 17.2096 36.6346 17.6729 36.9456 18.2108C37.2566 18.7488 37.4458 19.3485 37.5 19.9675C37.5 22.115 34.9625 24.2913 30.875 25.6438C27.3474 26.693 23.6798 27.1951 20 27.1325ZM20 14.3613C16.2927 14.3128 12.6013 14.8537 9.06375 15.9638C5.56375 17.185 3.995 18.855 3.995 19.9638C3.995 21.1238 5.68125 22.9475 9.38375 24.2138C12.825 25.2463 16.4083 25.7268 20 25.6375C23.5205 25.7005 27.0299 25.2241 30.4063 24.225C34.25 22.9513 36 21.125 36 19.9675C35.9367 19.5704 35.7919 19.1906 35.5746 18.8522C35.3573 18.5138 35.0723 18.2241 34.7375 18.0013C33.5521 17.0853 32.2146 16.3854 30.7862 15.9338C27.2974 14.8392 23.6562 14.3084 20 14.3613Z" fill="#00D8FF"/>
<path d="M12.9 35.5538C12.3169 35.5671 11.7407 35.4256 11.23 35.1438C9.44 34.1113 8.82 31.1338 9.57125 27.1775C10.4005 23.3917 11.8356 19.7646 13.8213 16.4363C15.6851 13.0979 18.0706 10.079 20.8875 7.49375C22.1293 6.36264 23.5614 5.45999 25.1175 4.8275C25.6807 4.56443 26.2947 4.42809 26.9163 4.42809C27.5378 4.42809 28.1518 4.56443 28.715 4.8275C30.5763 5.9 31.1925 9.185 30.3238 13.4013C29.47 16.982 28.0721 20.4106 26.1788 23.5675C24.3807 26.8665 22.0702 29.8592 19.3338 32.4338C18.0472 33.6097 16.5542 34.5374 14.93 35.17C14.2799 35.4119 13.5935 35.5417 12.9 35.5538ZM15.1163 17.1788C13.2224 20.3659 11.8469 23.8337 11.0413 27.4525C10.35 31.0963 11.0138 33.2875 11.9788 33.845C12.9788 34.4238 15.4063 33.875 18.3538 31.3C20.9664 28.8338 23.1717 25.9691 24.8875 22.8125C26.7012 19.7944 28.0421 16.5164 28.8638 13.0925C29.6813 9.12375 28.975 6.69375 27.9725 6.11625C27.5967 5.97251 27.1952 5.90818 26.7933 5.92733C26.3915 5.94648 25.9979 6.04868 25.6375 6.2275C24.2522 6.79932 22.9785 7.61091 21.875 8.625C19.1839 11.1015 16.9053 13.9916 15.125 17.1863L15.1163 17.1788Z" fill="#00D8FF"/>
<path d="M27.0962 35.57C25.4025 35.57 23.2512 34.545 21.0112 32.6188C18.1453 30.0097 15.7195 26.955 13.8275 23.5725C11.8664 20.2902 10.4426 16.7155 9.60997 12.9838C9.24974 11.3418 9.18287 9.64902 9.41247 7.98375C9.46645 7.36621 9.65487 6.76794 9.96452 6.23091C10.2742 5.69389 10.6975 5.2311 11.205 4.875C13.0637 3.79875 16.2175 4.905 19.4362 7.7625C22.112 10.2902 24.3842 13.2134 26.1737 16.43C28.1338 19.6356 29.5725 23.132 30.4362 26.7888C30.8126 28.4909 30.8707 30.248 30.6075 31.9713C30.5451 32.6068 30.3459 33.2214 30.0235 33.7727C29.7012 34.324 29.2633 34.799 28.74 35.165C28.2375 35.4428 27.6703 35.5826 27.0962 35.57ZM15.1212 22.82C16.9364 26.0524 19.2536 28.976 21.9862 31.4813C24.7975 33.9 27.0275 34.42 27.9862 33.8563C28.9862 33.275 29.7237 30.9025 28.9637 27.0638C28.1313 23.5723 26.7513 20.2348 24.875 17.175C23.1673 14.0964 20.9984 11.2973 18.4437 8.875C15.4137 6.185 12.9562 5.58375 11.955 6.16375C11.6431 6.41751 11.3871 6.7331 11.2032 7.09065C11.0192 7.44819 10.9113 7.83995 10.8862 8.24125C10.6876 9.72637 10.7524 11.2349 11.0775 12.6975C11.8786 16.2662 13.2441 19.6842 15.1225 22.8225L15.1212 22.82Z" fill="#00D8FF"/>
</svg>
